<?xml version="1.0" encoding="UTF-8" standalone="no"?>
<!-- Created with Inkscape (http://www.inkscape.org/) -->

<svg
   width="28.25"
   height="22.249935"
   viewBox="0 0 28.25 22.249935"
   version="1.1"
   id="svg5"
   xmlns="http://www.w3.org/2000/svg"
   xmlns:svg="http://www.w3.org/2000/svg">
  <defs
     id="defs2" />
  <g
     id="layer4"
     transform="translate(-1.875,-3.875005)">
    <rect
       style="fill:#ffffff;fill-opacity:1;stroke:none;stroke-width:1.70783;stroke-linecap:round;stroke-linejoin:round;stroke-dasharray:none;stroke-opacity:1"
       id="rect2118"
       width="28"
       height="20"
       x="2"
       y="6" />
  </g>
  <g
     id="layer1"
     transform="translate(-1.875,-3.875005)">
    <g
       id="g1304"
       transform="matrix(-1,0,0,1,32,2)">
      <path
         style="fill:#000000"
         d="M 2,4 C 2,4 12,2 16,4"
         id="path1258" />
      <path
         style="fill:#000000"
         d="m 2,24 c 0,0 10,-2 14,0"
         id="path1260" />
      <path
         style="fill:#000000;stroke:#000000;stroke-width:0.25;stroke-linecap:butt;stroke-dasharray:none;stroke-opacity:1"
         d="M 16,4 V 24"
         id="path1262" />
      <path
         style="fill:#000000;stroke:#000000;stroke-width:0.25;stroke-linecap:butt;stroke-dasharray:none;stroke-opacity:1"
         d="M 2,4 V 24"
         id="path1264" />
      <path
         style="fill:none;stroke:#000000;stroke-width:0.25;stroke-linecap:round;stroke-dasharray:none;stroke-opacity:1"
         d="m 3,22 c 0,0 9,-1 12,0"
         id="path1268" />
      <path
         style="fill:none;stroke:#000000;stroke-width:0.25;stroke-linecap:round;stroke-dasharray:none;stroke-opacity:1"
         d="m 3,21 c 0,0 9,-1 12,0"
         id="path1270" />
      <path
         style="fill:none;stroke:#000000;stroke-width:0.25;stroke-linecap:round;stroke-dasharray:none;stroke-opacity:1"
         d="m 3,20 c 0,0 9,-1 12,0"
         id="path1272" />
      <path
         style="fill:none;stroke:#000000;stroke-width:0.25;stroke-linecap:round;stroke-dasharray:none;stroke-opacity:1"
         d="m 3,19 c 0,0 9,-1 12,0"
         id="path1274" />
      <path
         style="fill:none;stroke:#000000;stroke-width:0.25;stroke-linecap:round;stroke-dasharray:none;stroke-opacity:1"
         d="m 3,18 c 0,0 9,-1 12,0"
         id="path1276" />
      <path
         style="fill:none;stroke:#000000;stroke-width:0.25;stroke-linecap:round;stroke-dasharray:none;stroke-opacity:1"
         d="m 3,17 c 0,0 9,-1 12,0"
         id="path1278" />
      <path
         style="fill:none;stroke:#000000;stroke-width:0.25;stroke-linecap:round;stroke-dasharray:none;stroke-opacity:1"
         d="m 3,16 c 0,0 9,-1 12,0"
         id="path1280" />
      <path
         style="fill:none;stroke:#000000;stroke-width:0.25;stroke-linecap:round;stroke-dasharray:none;stroke-opacity:1"
         d="m 3,15 c 0,0 9,-1 12,0"
         id="path1282" />
      <path
         style="fill:none;stroke:#000000;stroke-width:0.25;stroke-linecap:round;stroke-dasharray:none;stroke-opacity:1"
         d="m 3,14 c 0,0 9,-1 12,0"
         id="path1284" />
      <path
         style="fill:none;stroke:#000000;stroke-width:0.25;stroke-linecap:round;stroke-dasharray:none;stroke-opacity:1"
         d="m 3,13 c 0,0 9,-1 12,0"
         id="path1286" />
      <path
         style="fill:none;stroke:#000000;stroke-width:0.25;stroke-linecap:round;stroke-dasharray:none;stroke-opacity:1"
         d="m 3,13 c 0,0 9,-1 12,0"
         id="path1331" />
      <path
         style="fill:none;stroke:#000000;stroke-width:0.25;stroke-linecap:round;stroke-dasharray:none;stroke-opacity:1"
         d="m 3,12 c 0,0 9,-1 12,0"
         id="path1333" />
      <path
         style="fill:none;stroke:#000000;stroke-width:0.25;stroke-linecap:round;stroke-dasharray:none;stroke-opacity:1"
         d="m 3,11 c 0,0 9,-1 12,0"
         id="path1335" />
      <path
         style="fill:none;stroke:#000000;stroke-width:0.25;stroke-linecap:round;stroke-dasharray:none;stroke-opacity:1"
         d="m 3,10 c 0,0 9,-1 12,0"
         id="path1337" />
      <path
         style="fill:none;stroke:#000000;stroke-width:0.25;stroke-linecap:round;stroke-dasharray:none;stroke-opacity:1"
         d="M 3,9 C 3,9 12,8 15,9"
         id="path1339" />
      <path
         style="fill:none;stroke:#000000;stroke-width:0.25;stroke-linecap:round;stroke-dasharray:none;stroke-opacity:1"
         d="M 3,8 C 3,8 12,7 15,8"
         id="path1341" />
      <path
         style="fill:none;stroke:#000000;stroke-width:0.25;stroke-linecap:round;stroke-dasharray:none;stroke-opacity:1"
         d="M 3,7 C 3,7 12,6 15,7"
         id="path1343" />
      <path
         style="fill:none;stroke:#000000;stroke-width:0.25;stroke-linecap:round;stroke-dasharray:none;stroke-opacity:1"
         d="M 3,6 C 3,6 12,5 15,6"
         id="path1345" />
    </g>
  </g>
  <g
     id="layer2"
     transform="translate(-1.875,-3.875005)">
    <g
       id="g1256"
       transform="translate(0,2)">
      <path
         style="fill:#000000"
         d="M 2,4 C 2,4 12,2 16,4"
         id="path115" />
      <path
         style="fill:#000000"
         d="m 2,24 c 0,0 10,-2 14,0"
         id="path225" />
      <path
         style="fill:#000000;stroke:#000000;stroke-width:0.25;stroke-linecap:butt;stroke-dasharray:none;stroke-opacity:1"
         d="M 16,4 V 24"
         id="path292" />
      <path
         style="fill:#000000;stroke:#000000;stroke-width:0.25;stroke-linecap:butt;stroke-dasharray:none;stroke-opacity:1"
         d="M 2,4 V 24"
         id="path1181" />
      <path
         style="fill:none;stroke:#000000;stroke-width:0.25;stroke-linecap:round;stroke-dasharray:none;stroke-opacity:1"
         d="m 3,22 c 0,0 9,-1 12,0"
         id="path1185" />
      <path
         style="fill:none;stroke:#000000;stroke-width:0.25;stroke-linecap:round;stroke-dasharray:none;stroke-opacity:1"
         d="m 3,21 c 0,0 9,-1 12,0"
         id="path1187" />
      <path
         style="fill:none;stroke:#000000;stroke-width:0.25;stroke-linecap:round;stroke-dasharray:none;stroke-opacity:1"
         d="m 3,20 c 0,0 9,-1 12,0"
         id="path1189" />
      <path
         style="fill:none;stroke:#000000;stroke-width:0.25;stroke-linecap:round;stroke-dasharray:none;stroke-opacity:1"
         d="m 3,19 c 0,0 9,-1 12,0"
         id="path1191" />
      <path
         style="fill:none;stroke:#000000;stroke-width:0.25;stroke-linecap:round;stroke-dasharray:none;stroke-opacity:1"
         d="m 3,18 c 0,0 9,-1 12,0"
         id="path1193" />
      <path
         style="fill:none;stroke:#000000;stroke-width:0.25;stroke-linecap:round;stroke-dasharray:none;stroke-opacity:1"
         d="m 3,17 c 0,0 9,-1 12,0"
         id="path1195" />
      <path
         style="fill:none;stroke:#000000;stroke-width:0.25;stroke-linecap:round;stroke-dasharray:none;stroke-opacity:1"
         d="m 3,16 c 0,0 9,-1 12,0"
         id="path1197" />
      <path
         style="fill:none;stroke:#000000;stroke-width:0.25;stroke-linecap:round;stroke-dasharray:none;stroke-opacity:1"
         d="m 3,15 c 0,0 9,-1 12,0"
         id="path1199" />
      <path
         style="fill:none;stroke:#000000;stroke-width:0.25;stroke-linecap:round;stroke-dasharray:none;stroke-opacity:1"
         d="m 3,14 c 0,0 9,-1 12,0"
         id="path1201" />
      <path
         style="fill:none;stroke:#000000;stroke-width:0.25;stroke-linecap:round;stroke-dasharray:none;stroke-opacity:1"
         d="m 3,13 c 0,0 9,-1 12,0"
         id="path1203" />
      <rect
         style="fill:none;stroke:#000000;stroke-width:0.25;stroke-linecap:round;stroke-linejoin:round;stroke-dasharray:none;stroke-opacity:1"
         id="rect1205"
         width="6"
         height="6"
         x="3"
         y="5" />
      <path
         style="fill:none;stroke:#000000;stroke-width:0.25;stroke-linecap:round;stroke-dasharray:none;stroke-opacity:1"
         d="m 9.9107305,11.565868 c 0,0 3.4245515,-0.253571 5.0892695,0.434132"
         id="path1231" />
      <path
         style="fill:none;stroke:#000000;stroke-width:0.25;stroke-linecap:round;stroke-dasharray:none;stroke-opacity:1"
         d="m 9.9107302,10.565868 c 0,0 3.4245518,-0.253571 5.0892698,0.434132"
         id="path1347" />
      <path
         style="fill:none;stroke:#000000;stroke-width:0.25;stroke-linecap:round;stroke-dasharray:none;stroke-opacity:1"
         d="m 9.9107302,9.565868 c 0,0 3.4245518,-0.253571 5.0892698,0.434132"
         id="path1349" />
      <path
         style="fill:none;stroke:#000000;stroke-width:0.25;stroke-linecap:round;stroke-dasharray:none;stroke-opacity:1"
         d="M 9.9107302,8.565868 C 9.9107302,8.565868 13.335282,8.312297 15,9"
         id="path1351" />
      <path
         style="fill:none;stroke:#000000;stroke-width:0.25;stroke-linecap:round;stroke-dasharray:none;stroke-opacity:1"
         d="M 9.9107302,7.565868 C 9.9107302,7.565868 13.335282,7.312297 15,8"
         id="path1353" />
      <path
         style="fill:none;stroke:#000000;stroke-width:0.25;stroke-linecap:round;stroke-dasharray:none;stroke-opacity:1"
         d="M 9.9107302,6.565868 C 9.9107302,6.565868 13.335282,6.312297 15,7"
         id="path1355" />
      <path
         style="fill:none;stroke:#000000;stroke-width:0.25;stroke-linecap:round;stroke-dasharray:none;stroke-opacity:1"
         d="M 9.9107302,5.565868 C 9.9107302,5.565868 13.335282,5.312297 15,6"
         id="path1357" />
    </g>
  </g>
  <g
     id="layer3"
     transform="translate(-1.875,-3.875005)">
    <path
       style="fill:#ffff00;fill-opacity:1;stroke:#000000;stroke-width:0.25;stroke-linecap:round;stroke-linejoin:round;stroke-dasharray:none;stroke-opacity:1"
       d="m 2,26 9,-14 4,5 6,-13 7,4 -13,15 -3,-6 z"
       id="path1418" />
  </g>
</svg>
